<svg xmlns="http://www.w3.org/2000/svg" viewBox="0 0 1024 1024" width="100%" height="100%">
<defs>
<linearGradient id="tile" x1="0" y1="0" x2="0.35" y2="1">
<stop offset="0%" stop-color="#c9a25c"/><stop offset="46%" stop-color="#8f6a2a"/><stop offset="100%" stop-color="#3a2a10"/></linearGradient>
<linearGradient id="glare" x1="0" y1="0" x2="0" y2="1">
<stop offset="0%" stop-color="#fff" stop-opacity=".20"/><stop offset="44%" stop-color="#fff" stop-opacity="0"/></linearGradient>
<linearGradient id="pap" x1="0" y1="0" x2="0.3" y2="1">
<stop offset="0%" stop-color="#ffffff"/><stop offset="100%" stop-color="#ece8dc"/></linearGradient>
<linearGradient id="trace" x1="0" y1="0" x2="0.3" y2="1">
<stop offset="0%" stop-color="#fbf7ec"/><stop offset="100%" stop-color="#e7dfc9"/></linearGradient>
<linearGradient id="brassy" x1="0" y1="0" x2="0" y2="1">
<stop offset="0%" stop-color="#e2b86c"/><stop offset="100%" stop-color="#9a6f2c"/></linearGradient>
<linearGradient id="steel" x1="0" y1="0" x2="0" y2="1">
<stop offset="0%" stop-color="#e3e8ec"/><stop offset="100%" stop-color="#9aa5ad"/></linearGradient>

</defs>
<rect width="1024" height="1024" fill="url(#tile)"/><rect width="1024" height="1024" fill="url(#glare)"/>
<ellipse cx="512" cy="900" rx="350" ry="30" fill="#000" opacity=".38"/>
<g transform="rotate(-4 500.0 500.0)"><rect x="250" y="190" width="500" height="620" rx="14" fill="#000" opacity=".35" transform="translate(12 16)"/><rect x="250" y="190" width="500" height="620" rx="14" fill="url(#pap)"/>
  <rect x="290" y="240" width="300" height="26" rx="13" fill="#5b6873"/>
  <rect x="290" y="288" width="200" height="16" rx="8" fill="#a3adb5"/>
  <rect x="290" y="340" width="420" height="15" rx="7" fill="#9aa4ac"/><rect x="290" y="380" width="380" height="15" rx="7" fill="#9aa4ac"/><rect x="290" y="420" width="400" height="15" rx="7" fill="#9aa4ac"/><rect x="290" y="460" width="300" height="15" rx="7" fill="#9aa4ac"/>
  <rect x="290" y="520" width="420" height="15" rx="7" fill="#9aa4ac"/><rect x="290" y="560" width="360" height="15" rx="7" fill="#9aa4ac"/><rect x="290" y="600" width="410" height="15" rx="7" fill="#9aa4ac"/>
  <rect x="290" y="660" width="160" height="16" rx="8" fill="#a3adb5"/>
  <rect x="290" y="700" width="220" height="16" rx="8" fill="#a3adb5"/>
  </g>
  <!-- the stamp, hit hard and a little crooked -->
  <g transform="rotate(-14 640 560)">
    <rect x="470" y="470" width="340" height="180" rx="26" fill="none" stroke="#1c6b4a" stroke-width="22"/>
    <rect x="496" y="496" width="288" height="128" rx="14" fill="none" stroke="#1c6b4a" stroke-width="8" opacity=".55"/>
    <text x="640" y="596" text-anchor="middle" font-family="Helvetica Neue, Arial, sans-serif"
          font-size="112" font-weight="900" fill="#1c6b4a" letter-spacing="8">GO</text>
  </g>
  <rect x="480" y="465" width="70" height="30" rx="8" fill="#1c6b4a" opacity=".18" transform="rotate(-14 640 560)"/>

</svg>
